<?xml version="1.0" encoding="utf-8"?>
<!-- Generator: Adobe Illustrator 28.2.0, SVG Export Plug-In . SVG Version: 6.00 Build 0)  -->
<svg version="1.1" id="Calque_1" xmlns="http://www.w3.org/2000/svg" xmlns:xlink="http://www.w3.org/1999/xlink" x="0px" y="0px"
	 viewBox="0 0 1417.32 1417.32" style="enable-background:new 0 0 1417.32 1417.32;" xml:space="preserve">
<style type="text/css">
	.st0{fill:#355677;}
	.st1{font-family:'RacingSansOne-Regular';}
	.st2{font-size:56px;}
</style>
<g>
	<text transform="matrix(1 0 0 1 574.896 238.6145)" class="st0 st1 st2">Tapmachine </text>
	<g>
		<g>
			<path class="st0" d="M701.66,265.01l0.8-0.92c0.76,0.78,1.81,1.3,2.9,1.3c1.38,0,2.2-0.69,2.2-1.71c0-1.07-0.76-1.42-1.75-1.85
				l-1.51-0.67c-0.98-0.42-2.13-1.16-2.13-2.71c0-1.6,1.4-2.79,3.31-2.79c1.25,0,2.36,0.54,3.09,1.3l-0.71,0.86
				c-0.64-0.61-1.41-0.98-2.38-0.98c-1.18,0-1.96,0.59-1.96,1.53c0,1.01,0.92,1.39,1.74,1.74l1.5,0.65
				c1.22,0.52,2.16,1.25,2.16,2.81c0,1.66-1.37,2.99-3.58,2.99C703.86,266.57,702.58,265.97,701.66,265.01z"/>
			<path class="st0" d="M712.67,262.31l-3.16-6.43h1.43l1.36,2.97c0.34,0.77,0.65,1.5,1.02,2.29h0.06c0.36-0.79,0.73-1.52,1.05-2.29
				l1.36-2.97h1.38l-3.16,6.43v4.07h-1.34V262.31z"/>
			<path class="st0" d="M717.82,265.01l0.8-0.92c0.76,0.78,1.81,1.3,2.9,1.3c1.38,0,2.2-0.69,2.2-1.71c0-1.07-0.76-1.42-1.75-1.85
				l-1.51-0.67c-0.98-0.42-2.13-1.16-2.13-2.71c0-1.6,1.4-2.79,3.31-2.79c1.25,0,2.36,0.54,3.09,1.3l-0.71,0.86
				c-0.64-0.61-1.41-0.98-2.38-0.98c-1.18,0-1.96,0.59-1.96,1.53c0,1.01,0.92,1.39,1.74,1.74l1.5,0.65
				c1.22,0.52,2.17,1.25,2.17,2.81c0,1.66-1.37,2.99-3.58,2.99C720.02,266.57,718.74,265.97,717.82,265.01z"/>
			<path class="st0" d="M729.31,257h-3.18v-1.13h7.69V257h-3.18v9.37h-1.34V257z"/>
			<path class="st0" d="M735.7,255.87h6.05V257h-4.72v3.29h3.98v1.13h-3.98v3.82h4.88v1.13h-6.21V255.87z"/>
			<path class="st0" d="M744.13,255.87h1.61l2.01,5.61c0.25,0.72,0.49,1.46,0.75,2.19h0.06c0.25-0.73,0.47-1.47,0.73-2.19l1.99-5.61
				h1.61v10.51h-1.24v-5.78c0-0.92,0.1-2.18,0.17-3.11h-0.06l-0.83,2.4l-1.98,5.43h-0.89l-1.99-5.43l-0.83-2.4h-0.06
				c0.07,0.93,0.17,2.19,0.17,3.11v5.78h-1.21V255.87z"/>
			<path class="st0" d="M755,265.01l0.8-0.92c0.76,0.78,1.81,1.3,2.9,1.3c1.38,0,2.2-0.69,2.2-1.71c0-1.07-0.76-1.42-1.75-1.85
				l-1.51-0.67c-0.98-0.42-2.13-1.16-2.13-2.71c0-1.6,1.4-2.79,3.31-2.79c1.25,0,2.36,0.54,3.09,1.3l-0.71,0.86
				c-0.64-0.61-1.41-0.98-2.38-0.98c-1.18,0-1.96,0.59-1.96,1.53c0,1.01,0.92,1.39,1.74,1.74l1.5,0.65
				c1.22,0.52,2.17,1.25,2.17,2.81c0,1.66-1.37,2.99-3.58,2.99C757.2,266.57,755.92,265.97,755,265.01z"/>
		</g>
	</g>
</g>
</svg>
